<?xml version="1.0" standalone="no"?><!DOCTYPE svg PUBLIC "-//W3C//DTD SVG 1.1//EN" "http://www.w3.org/Graphics/SVG/1.1/DTD/svg11.dtd"><svg t="1594864389598" class="icon" viewBox="0 0 1024 1024" version="1.1" xmlns="http://www.w3.org/2000/svg" p-id="2631" xmlns:xlink="http://www.w3.org/1999/xlink" width="32" height="32"><defs><style type="text/css"></style></defs><path d="M569.804446 21.283616a82.073213 82.073213 0 0 0-110.283943 0L13.57278 444.729555a41.139605 41.139605 0 0 0 55.090472 61.105414l7.090932-6.731935v441.953761a82.277211 82.277211 0 0 0 82.27821 82.37921h239.434704V775.734381a57.932444 57.932444 0 0 1 57.957445-58.009444H568.089462a57.932444 57.932444 0 0 1 57.957444 58.009444v247.703624h245.11765a82.277211 82.277211 0 0 0 82.30321-82.38021V504.503982c18.277825 16.537841 44.210576 15.282853 59.417431-1.663984a41.139605 41.139605 0 0 0-2.969972-58.111443L569.804446 21.309616z" p-id="2632" fill="#999"></path></svg>