<?xml version="1.0" standalone="no"?><!DOCTYPE svg PUBLIC "-//W3C//DTD SVG 1.1//EN" "http://www.w3.org/Graphics/SVG/1.1/DTD/svg11.dtd"><svg t="1585294409500" class="icon" viewBox="0 0 1024 1024" version="1.1" xmlns="http://www.w3.org/2000/svg" p-id="1226" xmlns:xlink="http://www.w3.org/1999/xlink" width="500" height="500"><defs><style type="text/css"></style></defs><path d="M657.194667 146.389333a295.808 295.808 0 0 1 145.194666 254.592v163.669334l89.429334 157.44a42.666667 42.666667 0 0 1-37.12 63.744h-182.826667a160 160 0 0 1-319.701333 0H169.322667a42.666667 42.666667 0 0 1-37.12-63.744l89.450666-157.44v-163.669334c0-104.554667 55.189333-201.344 145.173334-254.592a285.141333 285.141333 0 0 1 290.368 0zM624.64 201.472a221.141333 221.141333 0 0 0-225.194667 0 231.808 231.808 0 0 0-113.664 192.512l-0.106666 6.997333v180.565334l-79.701334 140.288 207.466667 0.021333 2.688 61.162667a96 96 0 0 0 191.509333 4.629333l0.298667-4.629333 2.709333-61.162667 207.445334-0.021333-79.68-140.288v-180.565334c0-79.573333-40.810667-153.450667-107.797334-195.84l-5.973333-3.669333z" fill="#262626" p-id="1227"></path><path d="M435.626667 238.549333a32 32 0 1 1 42.709333 47.68c-43.541333 38.997333-66.496 83.754667-77.994667 148.906667a32 32 0 1 1-63.018666-11.136c13.866667-78.570667 43.477333-136.32 98.304-185.450667z" fill="#262626" p-id="1228"></path><path d="M512.021333 106.666667m-42.666666 0a42.666667 42.666667 0 1 0 85.333333 0 42.666667 42.666667 0 1 0-85.333333 0Z" fill="#262626" p-id="1229"></path></svg>