<?xml version="1.0" standalone="no"?><!DOCTYPE svg PUBLIC "-//W3C//DTD SVG 1.1//EN" "http://www.w3.org/Graphics/SVG/1.1/DTD/svg11.dtd"><svg t="1594864502432" class="icon" viewBox="0 0 1024 1024" version="1.1" xmlns="http://www.w3.org/2000/svg" p-id="7543" xmlns:xlink="http://www.w3.org/1999/xlink" width="32" height="32"><defs><style type="text/css"></style></defs><path d="M398.234375 484.91210937H84.13085937A21.73535156 21.73535156 0 0 1 62.45703125 463.22949219V148.80078125a21.74414063 21.74414063 0 0 1 21.67382813-21.70019531h314.10351562a21.75292969 21.75292969 0 0 1 21.68261719 21.70019531v314.42871094a21.75292969 21.75292969 0 0 1-21.68261719 21.68261719zM398.234375 962H84.13085937A21.74414063 21.74414063 0 0 1 62.45703125 940.30859375V625.87988281a21.75292969 21.75292969 0 0 1 21.67382813-21.70019531h314.10351562a21.76171875 21.76171875 0 0 1 21.68261719 21.70019531v314.42871094a21.76171875 21.76171875 0 0 1-21.68261719 21.69140625zM874.83886719 962H560.73535156a21.76171875 21.76171875 0 0 1-21.68261718-21.69140625V625.87988281a21.76171875 21.76171875 0 0 1 21.68261718-21.70019531h314.10351563a21.76171875 21.76171875 0 0 1 21.67382812 21.70019531v314.42871094a21.75292969 21.75292969 0 0 1-21.67382812 21.69140625zM955.22363281 321.35644531l-222.1171875 222.36328125a21.71777344 21.71777344 0 0 1-30.64746094 0l-222.10839843-222.36328125a21.80566406 21.80566406 0 0 1 0-30.69140625L702.45898438 68.328125a21.71777344 21.71777344 0 0 1 30.64746093 0l222.1171875 222.36328125a21.78808594 21.78808594 0 0 1 0 30.66503906z" p-id="7544" fill="#999"></path></svg>